<svg width="150" height="104" viewBox="0 0 150 104" fill="none" xmlns="http://www.w3.org/2000/svg">
    <g clip-path="url(#clip0_5140_2)">
        <path
            d="M56.4366 28.248C58.5542 24.8004 60.3107 21.1306 62.7895 18.041C74.9275 2.91725 90.7451 -3.42856 109.687 0.966591C128.628 5.36174 140.226 17.8743 144.514 36.9087C146.057 43.81 145.628 50.7114 143.761 57.514C143.473 58.5572 143.578 59.2918 144.258 60.1715C150.629 68.4525 152.228 77.5946 148.295 87.3016C144.443 96.8049 137.102 102.286 127.017 104.055C125.643 104.266 124.254 104.36 122.865 104.336C90.9663 104.348 59.0677 104.348 27.1691 104.336C14.0526 104.32 3.28215 95.6721 0.312488 82.9126C-2.74669 69.7457 4.98613 55.9214 17.8896 51.591C19.0966 51.1867 19.6554 50.7052 19.8499 49.3317C21.9212 34.9086 36.1768 24.5319 50.596 26.9085C52.6211 27.2418 54.5967 27.819 56.4366 28.248ZM74.8256 96.9345C90.7728 96.9345 106.72 96.9932 122.674 96.9129C131.388 96.8697 137.735 92.7925 141.325 84.8756C144.684 77.4527 142.949 69.221 136.978 63.1592C135.435 61.5851 135.188 59.9492 135.886 57.9615C138.448 50.6682 138.825 43.2205 136.688 35.816C132.53 21.4207 123.174 11.8773 108.619 8.28464C93.9771 4.67037 81.2959 8.92046 70.8959 19.8065C66.9662 23.9208 64.299 28.819 62.5858 34.245C61.9159 36.3685 60.6503 37.5321 58.9308 37.4025C57.9584 37.3253 56.9614 36.8685 56.0816 36.3901C43.1688 29.3962 27.1907 38.5198 26.8758 53.0942C26.8048 56.3134 26.0176 57.2455 22.8628 57.8659C12.1356 59.9708 5.1127 70.8291 7.58844 81.4496C9.74932 90.7091 17.5933 96.916 27.3049 96.9376C43.1348 96.9623 58.9802 96.9345 74.8256 96.9345V96.9345Z"
            fill="#555555" />
        <path
            d="M74.8255 96.9345C58.9802 96.9345 43.1348 96.9623 27.2863 96.9345C17.5747 96.9129 9.72769 90.6967 7.5699 81.4466C5.10033 70.8167 12.117 59.9678 22.8442 57.8628C26.0083 57.2455 26.7955 56.3195 26.8572 53.0911C27.1659 38.5167 43.1502 29.3931 56.063 36.387C56.9428 36.8654 57.9399 37.313 58.9122 37.3994C60.6317 37.529 61.8974 36.3654 62.5672 34.2419C64.2805 28.8159 66.9476 23.9177 70.8773 19.8034C81.2773 8.91737 93.9586 4.67963 108.6 8.28155C123.155 11.8742 132.512 21.4176 136.67 35.813C138.806 43.2205 138.429 50.6651 135.867 57.9585C135.169 59.9462 135.41 61.582 136.96 63.1561C142.93 69.2179 144.677 77.4496 141.306 84.8726C137.716 92.8048 131.369 96.8821 122.655 96.9098C106.72 96.9932 90.7604 96.9345 74.8255 96.9345ZM85.2379 59.0943C84.4538 58.2085 83.7716 57.443 83.0986 56.6745C79.2955 52.3534 75.4944 48.0251 71.6954 43.6897C70.0315 41.8038 67.7811 41.5507 66.1388 43.0322C64.4966 44.5138 64.4595 46.6311 66.0894 48.5107C68.1762 50.9213 70.2908 53.3071 72.393 55.7053L79.6474 63.9863C79.0609 64.511 78.5731 64.9555 78.0761 65.3938C73.3963 69.4957 68.7041 73.5853 64.0459 77.7088C62.3203 79.2521 62.1628 81.4651 63.5643 83.0608C64.9658 84.6565 67.1298 84.7707 68.9264 83.2676C69.7135 82.6071 70.4699 81.9157 71.2478 81.2367L84.5433 69.5791C85.1144 70.218 85.6299 70.7797 86.1331 71.3538C90.069 75.8384 93.974 80.3509 97.9654 84.783C98.6791 85.5698 99.5856 86.1571 100.596 86.4868C102.068 86.9282 103.611 86.067 104.383 84.7399C105.229 83.2861 105.084 81.7367 103.852 80.3262C99.3268 75.1378 94.7735 69.968 90.1431 64.6901C90.6339 64.2364 91.0691 63.8166 91.5291 63.4184C96.1595 59.3443 100.833 55.3041 105.42 51.1713C106.199 50.4503 106.763 49.5286 107.05 48.5077C107.449 47.0169 106.544 45.5107 105.198 44.7792C103.723 43.9829 102.25 44.1773 100.799 45.4459C95.6533 49.9521 90.5166 54.4676 85.2379 59.0943V59.0943Z"
            fill="white" />
        <path
            d="M85.2379 59.0943C90.5166 54.4645 95.6533 49.9521 100.805 45.4551C102.256 44.1866 103.729 43.9921 105.204 44.7884C106.553 45.5199 107.458 47.0261 107.057 48.5169C106.769 49.5378 106.205 50.4596 105.427 51.1805C100.843 55.3133 96.1658 59.3535 91.5353 63.4277C91.0784 63.8258 90.6401 64.2456 90.1493 64.6993C94.7797 69.9679 99.3206 75.1378 103.846 80.3261C105.081 81.7367 105.223 83.2861 104.377 84.7398C103.605 86.067 102.062 86.9281 100.589 86.4868C99.5795 86.157 98.673 85.5698 97.9593 84.783C93.9678 80.3508 90.0628 75.8322 86.1269 71.3538C85.6238 70.7797 85.1082 70.2179 84.5372 69.579L71.2416 81.2367C70.4699 81.9157 69.6981 82.6071 68.9202 83.2676C67.1236 84.7707 64.9843 84.6812 63.5582 83.0608C62.132 81.4404 62.3234 79.2366 64.0397 77.7088C68.6979 73.5853 73.3901 69.4957 78.07 65.3938C78.567 64.9555 79.0547 64.511 79.6412 63.9863L72.3838 55.7053C70.2816 53.3071 68.167 50.9213 66.0802 48.5107C64.4503 46.6311 64.4842 44.5199 66.1296 43.0322C67.7749 41.5445 70.0253 41.7976 71.6861 43.6896C75.4913 48.0107 79.2924 52.339 83.0894 56.6745C83.7716 57.443 84.4538 58.2084 85.2379 59.0943Z"
            fill="#555555" />
    </g>
    <defs>
        <clipPath id="clip0_5140_2">
            <rect width="150" height="104" fill="white" />
        </clipPath>
    </defs>
</svg>